<svg xmlns="http://www.w3.org/2000/svg" viewBox="0 0 512 512">
  <defs>
    <linearGradient id="bg" x1="0" y1="0" x2="1" y2="1">
      <stop offset="0" stop-color="#7c8bff"/>
      <stop offset="0.55" stop-color="#6a5cff"/>
      <stop offset="1" stop-color="#8a4fe0"/>
    </linearGradient>
    <linearGradient id="flame" x1="0" y1="1" x2="0" y2="0">
      <stop offset="0" stop-color="#ffb347"/>
      <stop offset="1" stop-color="#fff2c9"/>
    </linearGradient>
    <radialGradient id="glow" cx="0.3" cy="0.15" r="0.9">
      <stop offset="0" stop-color="#ffffff" stop-opacity="0.35"/>
      <stop offset="1" stop-color="#ffffff" stop-opacity="0"/>
    </radialGradient>
  </defs>
  <rect width="512" height="512" rx="120" fill="url(#bg)"/>
  <rect width="512" height="512" rx="120" fill="url(#glow)"/>
  <!-- чат-пузырь -->
  <path d="M256 92c-88 0-160 62-160 140 0 44 23 83 59 109l-13 62c-1 6 5 10 10 7l64-36c13 3 27 5 40 5 88 0 160-62 160-140S344 92 256 92z" fill="#fff" fill-opacity="0.96"/>
  <!-- буква N со «вспышкой» газового факела -->
  <path d="M190 292V176h26l82 78V176h26v116h-26l-82-78v78z" fill="#5b56e8"/>
  <path d="M352 56c34 38 48 70 30 102-11 19-38 25-56 10-20-17-18-47 6-70 6-6 12-20 20-42z" fill="url(#flame)" stroke="#6a5cff" stroke-width="10" stroke-linejoin="round"/>
  <path d="M348 112c14 16 18 30 10 44-6 10-22 12-30 3-9-10-6-24 8-34 5-4 9-9 12-13z" fill="#ff8a3d" opacity=".85"/>
</svg>
